<?xml version="1.0" encoding="UTF-8" standalone="no"?>
<!DOCTYPE svg PUBLIC "-//W3C//DTD SVG 1.1//EN" "http://www.w3.org/Graphics/SVG/1.1/DTD/svg11.dtd">
<svg version="1.1" xmlns="http://www.w3.org/2000/svg" xmlns:xlink="http://www.w3.org/1999/xlink" preserveAspectRatio="xMidYMid meet" viewBox="0 0 640 640" width="640" height="640"><defs><path d="M428 316.42C428 367.47 386.48 408.92 335.33 408.92C284.19 408.92 242.67 367.47 242.67 316.42C242.67 265.36 284.19 223.92 335.33 223.92C386.48 223.92 428 265.36 428 316.42Z" id="d5dhNmjK4Y"></path><path d="M342.75 267.31L342 269.94L341 272.31L339.75 274.69L338.5 276.94L337.5 279.31L336 281.81L334.63 283.94L333.5 286.19L332.38 288.69L331 290.81L329.5 292.94L328.13 295.06L326.5 297.06L325.38 299.31L322.63 303.81L321.5 306.06L321.88 308.56L323.63 313.31L324.63 318.31L326.5 325.81L327.63 328.19L329 330.31L330 332.69L330.88 335.19L331.5 337.69L332.5 340.06L333.38 342.44L333.63 344.94L333.5 347.44L333.63 349.94L333.75 352.56L331.5 353.69L329 353.19L327.38 351.19L326.63 348.69L326.5 346.06L325.88 343.56L325.13 341.06L324.25 338.56L323.38 336.19L322.63 333.69L321.75 331.31L321 328.81L320.25 326.19L319.75 323.69L318.75 321.19L317.25 319.06L314.88 318.19L312.63 319.44L310.63 321.06L308.88 323.06L306.63 327.56L305.63 329.94L304.25 332.19L301.75 337.19L300.63 339.56L299.38 341.94L298 344.19L295.75 348.69L294.25 350.81L292.25 352.69L289.88 351.81L288.88 349.44L288.88 346.81L289 344.31L289.63 341.69L290.75 339.44L292.25 337.31L293.63 335.19L295 332.81L296.38 330.56L297.75 328.44L299 326.19L300.63 324.19L302.13 322.06L304 319.94L305.63 317.94L307.38 315.94L309 313.94L310.5 311.69L310.68 311.21L311.5 309.56L312.13 307.06L311.75 304.56L310.88 302.19L310.13 299.69L309.13 297.19L308.13 294.81L307 292.56L304.25 288.06L303.13 285.69L302.13 283.31L300.63 281.06L299 279.06L296.88 277.44L294.38 276.94L292.79 275.73L292.06 275.28L291.19 274.34L290.81 273.09L290.69 271.84L290.75 270.59L291 269.34L291.44 268.16L291.74 267.76L291.75 267.69L293.13 265.56L294.88 263.69L297.25 264.69L299.5 265.94L301.63 267.81L303.25 269.81L305 271.69L306.13 273.94L307.25 276.44L308.13 278.94L309.13 281.44L310.25 283.69L311.75 285.81L313.13 287.94L314.38 290.19L315.38 292.69L316.38 295.06L319 295.31L321 293.69L322.5 291.56L324.13 289.56L325.5 287.19L326.75 284.81L327.75 282.44L329 280.06L330.88 278.31L333.63 274.06L335.63 272.19L339.38 265.44L340.63 263.06L342.5 264.81L342.75 267.31ZM310.38 311.81L311.38 309.31L310.68 311.21L310.38 311.81Z" id="f1KOvP9a3K"></path><path d="M352 329.94L349.25 329.94L346.63 329.81L344.13 329.69L341.63 329.56L339 329.56L336.25 329.56L333.75 329.81L331.25 329.94L328.63 330.19L326.13 330.31L323.63 330.44L321 330.56L318.38 330.56L315.88 330.69L313.38 331.31L310.88 331.81L308.5 332.69L307.38 334.94L308.25 337.31L310.63 338.31L313.13 338.44L315.75 338.69L318.38 338.69L321 338.69L323.63 338.56L326.13 338.44L328.75 337.81L331.25 337.31L333.75 337.19L336.25 336.81L338.75 336.56L341.25 336.44L343.88 336.44L346.5 336.44L349.13 337.06L351.38 338.19L351.25 340.94L350.5 343.56L349.88 346.06L348.5 348.19L347.13 350.31L345.88 352.69L344.88 355.06L344 357.44L343.63 359.94L343.38 362.44L343.38 365.19L343.13 367.69L343.25 370.19L343.25 372.81L344.5 375.06L346.13 377.06L348.63 377.19L348.75 374.56L348.88 372.06L349.38 369.56L350 367.06L350.63 364.56L350.5 362.06L350.63 359.56L351.5 357.19L352.25 354.69L353.13 352.31L354 349.81L355 347.44L356 345.06L357.13 342.81L358.63 340.56L360 338.31L361.38 336.19L363.5 334.81L366 334.31L368.5 334.56L371 334.94L373.5 334.44L375.38 332.69L375.63 330.19L373.13 329.44L370.63 329.56L368.13 329.44L366.63 327.31L366.5 324.81L367.25 322.31L368.38 319.94L369.75 317.81L371.13 315.56L372.88 313.69L374.5 311.44L375.88 309.31L377 307.06L378.13 304.81L379.25 302.56L380.5 300.31L381.75 297.94L383.25 295.81L384.5 293.56L385.75 291.19L386.75 288.81L387.63 286.44L388.5 284.06L388.88 281.56L388.75 278.94L386.75 277.31L384.25 277.69L382.13 279.31L380.38 281.31L378.75 283.44L376.88 285.19L374.5 286.44L371.88 286.94L369.38 287.56L367.13 288.81L365 290.19L362.5 291.06L360 291.81L357.75 293.06L355.38 294.06L352.63 294.19L350.13 294.06L347.63 294.31L345.13 295.19L342.5 295.94L340 296.31L337.5 296.81L335 296.94L332.5 297.56L332.88 300.06L335.38 300.94L337.75 301.94L340.25 302.69L342.75 302.94L345.25 303.06L347.75 303.19L350.38 303.19L352.88 302.56L355.25 301.31L357.5 300.06L359.88 299.06L362.38 298.69L364.88 298.56L367.38 298.94L368 301.56L367 303.94L365.75 306.31L364.63 308.56L363.5 310.81L362.63 313.31L361.75 315.69L360.63 317.94L359.5 320.19L358.13 322.31L357 324.56L355.63 326.69L353.88 328.56L351.75 329.94L349.25 330.06" id="b4zpzzFmVM"></path><path d="M365.85 334.28L367.1 334.34L368.35 334.53L369.6 334.66L370.85 334.97L372.1 335.03L373.35 334.97L374.66 334.97L375.91 334.78L377.04 334.22L377.85 333.22L378.1 331.97L378.04 330.72L377.04 329.91L375.91 329.34L374.66 329.16L373.41 329.09L372.1 329.09L370.85 329.28L369.6 329.34L368.29 329.34L367.29 328.53L366.66 327.41" id="hpGWHXFcd"></path></defs><g><g><g><use xlink:href="#d5dhNmjK4Y" opacity="1" fill="#ffffff" fill-opacity="1"></use><g><use xlink:href="#d5dhNmjK4Y" opacity="1" fill-opacity="0" stroke="#000000" stroke-width="1" stroke-opacity="1"></use></g></g><g><use xlink:href="#f1KOvP9a3K" opacity="1" fill="#000000" fill-opacity="1"></use><g><use xlink:href="#f1KOvP9a3K" opacity="1" fill-opacity="0" stroke="#000000" stroke-width="1" stroke-opacity="1"></use></g></g><g><use xlink:href="#b4zpzzFmVM" opacity="1" fill="#800080" fill-opacity="1"></use><g><use xlink:href="#b4zpzzFmVM" opacity="1" fill-opacity="0" stroke="#000000" stroke-width="1" stroke-opacity="1"></use></g></g><g><use xlink:href="#hpGWHXFcd" opacity="1" fill="#810481" fill-opacity="1"></use><g><use xlink:href="#hpGWHXFcd" opacity="1" fill-opacity="0" stroke="#000000" stroke-width="1" stroke-opacity="1"></use></g></g></g></g></svg>